<!-- Generated by IcoMoon.io -->
<svg version="1.1" xmlns="http://www.w3.org/2000/svg" width="1024" height="1024" viewBox="0 0 1024 1024">
<title></title>
<g id="icomoon-ignore">
</g>
<path d="M981.769 149.932c24.148-22.879 25.178-61.004 2.301-85.155-22.883-24.15-61.006-25.181-85.155-2.302l-386.915 366.55-386.914-366.55c-24.15-22.879-62.275-21.849-85.154 2.302s-21.849 62.275 2.301 85.155l382.183 362.068-382.183 362.065c-24.15 22.883-25.181 61.006-2.301 85.155 22.879 24.154 61.004 25.184 85.154 2.301l386.914-366.547 386.915 366.547c24.148 22.883 62.271 21.853 85.155-2.301 22.877-24.148 21.847-62.271-2.301-85.155l-382.187-362.065 382.187-362.068z"></path>
</svg>
