<!-- Generated by IcoMoon.io -->
<svg version="1.1" xmlns="http://www.w3.org/2000/svg" width="1024" height="1024" viewBox="0 0 1024 1024">
<title></title>
<g id="icomoon-ignore">
</g>
<path d="M757.18 2.339h-440.389c-59.119 0-106.94 47.889-106.94 107.042v136.022h66.287l-0.034-109.978c0.068-33.28 26.829-60.211 60.006-60.211l376.628-0.342v178.449c0.070 66.458 53.76 120.252 120.288 120.252h130.355l-6.419 514.763c-0.102 33.114-26.963 59.84-60.038 60.109l-565.592-0.269c-30.276 0-54.648-29.696-54.784-66.291v-43.584h-66.389v64.986c0 65.267 43.759 118.374 97.485 118.374l608.634-0.134c59.117 0 107.072-48.128 107.072-107.142v-603.24l-266.17-308.804z"></path>
<path d="M690.927 871.472h-690.278v-659.249h690.278v659.249zM66.97 805.117h557.5v-526.538h-557.5z"></path>
<path d="M537.566 715.83h-116.224l-79.326-112.095-83.285 112.095h-116.771l144.862-182.136-116.975-159.368h117.93l54.75 86.63 58.368-86.63h120.013l-122.641 159.368 139.299 182.136z"></path>
</svg>
