<!-- Generated by IcoMoon.io -->
<svg version="1.1" xmlns="http://www.w3.org/2000/svg" width="1024" height="1024" viewBox="0 0 1024 1024">
<title></title>
<g id="icomoon-ignore">
</g>
<path d="M302.127 675.835l290.536-290.535 45.254 45.255-290.536 290.534-45.255-45.254z"></path>
<path d="M63.29 992.008c-4.516 0.026-8.986-0.902-13.117-2.726s-7.829-4.499-10.852-7.859c-3.023-3.354-5.301-7.309-6.685-11.61-1.384-4.294-1.843-8.838-1.346-13.325l28.8-261.44c0.807-7.277 4.082-14.054 9.28-19.2l610.561-610.242c10.586-10.653 23.174-19.106 37.043-24.875s28.736-8.739 43.757-8.739c15.021 0 29.888 2.97 43.757 8.739 13.862 5.769 26.458 14.223 37.043 24.875l117.76 116.16c10.65 10.588 19.104 23.176 24.877 37.043 5.766 13.867 8.736 28.738 8.736 43.757s-2.97 29.889-8.736 43.756c-5.773 13.867-14.227 26.456-24.877 37.044l-611.841 610.242c-5.151 5.197-11.927 8.474-19.2 9.28l-261.44 29.12h-3.52zM122.81 712.968l-23.36 210.88 210.88-23.36 492.507-492.769-187.26-187.258-492.767 492.508zM912.571 297.926c9.338-9.462 14.579-22.224 14.579-35.52s-5.242-26.058-14.579-35.52l-116.16-116.16c-9.466-9.341-22.227-14.579-35.52-14.579-13.299 0-26.061 5.238-35.52 14.579l-64.019 63.987 187.232 187.234 63.987-64.020z"></path>
</svg>
