<svg width="14" height="14" viewBox="0 0 14 14" fill="none" xmlns="http://www.w3.org/2000/svg">
<path d="M8.31371 1.65685C8.31371 1.10456 7.866 0.656845 7.31371 0.656845C6.76143 0.656845 6.31371 1.10456 6.31371 1.65684V6.3137H1.65686C1.10458 6.3137 0.65686 6.76141 0.65686 7.3137C0.65686 7.86598 1.10458 8.3137 1.65686 8.3137H6.31371V12.9706C6.31371 13.5228 6.76143 13.9706 7.31371 13.9706C7.866 13.9706 8.31371 13.5228 8.31371 12.9706V8.3137H12.9706C13.5229 8.3137 13.9706 7.86598 13.9706 7.3137C13.9706 6.76141 13.5229 6.3137 12.9706 6.3137H8.31371V1.65685Z" fill="#767676"/>
</svg>
