<!-- Generated by IcoMoon.io -->
<svg version="1.1" xmlns="http://www.w3.org/2000/svg" width="1024" height="1024" viewBox="0 0 1024 1024">
<title></title>
<g id="icomoon-ignore">
</g>
<path d="M56.889 56.889v-28.444h-28.444v28.444h28.444zM967.111 56.889h28.444v-28.444h-28.444v28.444zM967.111 967.111v28.444h28.444v-28.444h-28.444zM56.889 967.111h-28.444v28.444h28.444v-28.444zM756.622 329.956c0 15.709 12.737 28.444 28.444 28.444s28.444-12.735 28.444-28.444h-56.889zM785.067 75.093h28.444v-28.444h-28.444v28.444zM238.933 75.093v-28.444h-28.444v28.444h28.444zM210.489 329.956c0 15.709 12.735 28.444 28.444 28.444s28.444-12.735 28.444-28.444h-56.889zM785.067 584.818h28.444v-28.444h-28.444v28.444zM785.067 948.907v28.444h28.444v-28.444h-28.444zM238.933 948.907h-28.444v28.444h28.444v-28.444zM238.933 584.818v-28.444h-28.444v28.444h28.444zM238.933 813.511c15.709 0 28.444-12.737 28.444-28.444s-12.735-28.444-28.444-28.444v56.889zM785.067 756.622c-15.707 0-28.444 12.737-28.444 28.444s12.737 28.444 28.444 28.444v-56.889zM694.044 722.489c15.707 0 28.444-12.737 28.444-28.444s-12.737-28.444-28.444-28.444v56.889zM329.956 665.6c-15.709 0-28.444 12.737-28.444 28.444s12.735 28.444 28.444 28.444v-56.889zM621.227 795.307c15.707 0 28.444-12.737 28.444-28.444s-12.737-28.444-28.444-28.444v56.889zM329.956 738.418c-15.709 0-28.444 12.737-28.444 28.444s12.735 28.444 28.444 28.444v-56.889zM694.044 868.124c15.707 0 28.444-12.737 28.444-28.444s-12.737-28.444-28.444-28.444v56.889zM329.956 811.236c-15.709 0-28.444 12.737-28.444 28.444s12.735 28.444 28.444 28.444v-56.889zM56.889 85.333h910.222v-56.889h-910.222v56.889zM938.667 56.889v910.222h56.889v-910.222h-56.889zM967.111 938.667h-910.222v56.889h910.222v-56.889zM85.333 967.111v-910.222h-56.889v910.222h56.889zM839.68 504.036c35.817 0 64.853-29.036 64.853-64.853h-56.889c0 4.399-3.567 7.964-7.964 7.964v56.889zM904.533 439.182c0-35.817-29.036-64.853-64.853-64.853v56.889c4.398 0 7.964 3.566 7.964 7.964h56.889zM839.68 374.329c-35.817 0-64.853 29.036-64.853 64.853h56.889c0-4.399 3.567-7.964 7.964-7.964v-56.889zM774.827 439.182c0 35.818 29.036 64.853 64.853 64.853v-56.889c-4.398 0-7.964-3.566-7.964-7.964h-56.889zM813.511 329.956v-254.862h-56.889v254.862h56.889zM785.067 46.649h-546.133v56.889h546.133v-56.889zM210.489 75.093v254.862h56.889v-254.862h-56.889zM756.622 584.818v364.089h56.889v-364.089h-56.889zM785.067 920.462h-546.133v56.889h546.133v-56.889zM267.378 948.907v-364.089h-56.889v364.089h56.889zM238.933 613.262h546.133v-56.889h-546.133v56.889zM238.933 756.622h-127.431v56.889h127.431v-56.889zM111.502 756.622c-4.388 0-7.964-3.578-7.964-7.964h-56.889c0 35.806 29.046 64.853 64.853 64.853v-56.889zM103.538 748.658v-382.293h-56.889v382.293h56.889zM103.538 366.364c0-4.388 3.576-7.964 7.964-7.964v-56.889c-35.807 0-64.853 29.046-64.853 64.853h56.889zM111.502 358.4h800.996v-56.889h-800.996v56.889zM912.498 358.4c4.386 0 7.964 3.576 7.964 7.964h56.889c0-35.807-29.047-64.853-64.853-64.853v56.889zM920.462 366.364v382.293h56.889v-382.293h-56.889zM920.462 748.658c0 4.386-3.578 7.964-7.964 7.964v56.889c35.806 0 64.853-29.047 64.853-64.853h-56.889zM912.498 756.622h-127.431v56.889h127.431v-56.889zM694.044 665.6h-364.089v56.889h364.089v-56.889zM621.227 738.418h-291.271v56.889h291.271v-56.889zM694.044 811.236h-364.089v56.889h364.089v-56.889z"></path>
</svg>
