<!-- Generated by IcoMoon.io -->
<svg version="1.1" xmlns="http://www.w3.org/2000/svg" width="1024" height="1024" viewBox="0 0 1024 1024">
<title></title>
<g id="icomoon-ignore">
</g>
<path d="M30.119 30.119v-30.118h-30.118v30.118h30.118zM993.881 30.119h30.118v-30.118h-30.118v30.118zM993.881 993.881v30.118h30.118v-30.118h-30.118zM30.119 993.881h-30.118v30.118h30.118v-30.118zM771.011 319.247c0 16.633 13.487 30.118 30.118 30.118s30.118-13.485 30.118-30.118h-60.235zM801.13 49.393h30.118v-30.118h-30.118v30.118zM222.87 49.393v-30.118h-30.118v30.118h30.118zM192.754 319.247c0 16.633 13.485 30.118 30.118 30.118s30.118-13.485 30.118-30.118h-60.235zM801.13 589.102h30.118v-30.118h-30.118v30.118zM801.13 974.607v30.118h30.118v-30.118h-30.118zM222.87 974.607h-30.118v30.118h30.118v-30.118zM222.87 589.102v-30.118h-30.118v30.118h30.118zM222.87 831.246c16.633 0 30.118-13.487 30.118-30.118s-13.485-30.118-30.118-30.118v60.235zM801.13 771.011c-16.631 0-30.118 13.487-30.118 30.118s13.487 30.118 30.118 30.118v-60.235zM704.753 734.87c16.631 0 30.118-13.487 30.118-30.118s-13.487-30.118-30.118-30.118v60.235zM319.247 674.635c-16.633 0-30.118 13.487-30.118 30.118s13.485 30.118 30.118 30.118v-60.235zM627.652 811.972c16.631 0 30.118-13.487 30.118-30.118s-13.487-30.118-30.118-30.118v60.235zM319.247 751.737c-16.633 0-30.118 13.487-30.118 30.118s13.485 30.118 30.118 30.118v-60.235zM704.753 889.073c16.631 0 30.118-13.487 30.118-30.118s-13.487-30.118-30.118-30.118v60.235zM319.247 828.839c-16.633 0-30.118 13.487-30.118 30.118s13.485 30.118 30.118 30.118v-60.235zM30.119 60.235h963.764v-60.235h-963.764v60.235zM963.765 30.119v963.764h60.235v-963.764h-60.235zM993.881 963.765h-963.764v60.235h963.764v-60.235zM60.235 993.881v-963.764h-60.235v963.764h60.235zM858.955 503.567c37.925 0 68.668-30.743 68.668-68.668h-60.235c0 4.658-3.777 8.433-8.433 8.433v60.235zM927.623 434.898c0-37.925-30.743-68.668-68.668-68.668v60.235c4.657 0 8.433 3.776 8.433 8.433h60.235zM858.955 366.23c-37.925 0-68.668 30.743-68.668 68.668h60.235c0-4.658 3.777-8.433 8.433-8.433v-60.235zM790.287 434.898c0 37.926 30.743 68.668 68.668 68.668v-60.235c-4.657 0-8.433-3.776-8.433-8.433h-60.235zM831.246 319.247v-269.853h-60.235v269.853h60.235zM801.13 19.275h-578.257v60.235h578.257v-60.235zM192.754 49.393v269.853h60.235v-269.853h-60.235zM771.011 589.102v385.507h60.235v-385.507h-60.235zM801.13 944.49h-578.257v60.235h578.257v-60.235zM252.989 974.607v-385.507h-60.235v385.507h60.235zM222.87 619.218h578.257v-60.235h-578.257v60.235zM222.87 771.011h-134.926v60.235h134.926v-60.235zM87.943 771.011c-4.647 0-8.433-3.788-8.433-8.433h-60.235c0 37.911 30.756 68.668 68.668 68.668v-60.235zM79.51 762.578v-404.781h-60.235v404.781h60.235zM79.51 357.798c0-4.647 3.786-8.433 8.433-8.433v-60.235c-37.912 0-68.668 30.756-68.668 68.668h60.235zM87.943 349.365h848.113v-60.235h-848.113v60.235zM936.057 349.365c4.645 0 8.433 3.786 8.433 8.433h60.235c0-37.912-30.757-68.668-68.668-68.668v60.235zM944.49 357.798v404.781h60.235v-404.781h-60.235zM944.49 762.578c0 4.645-3.788 8.433-8.433 8.433v60.235c37.911 0 68.668-30.757 68.668-68.668h-60.235zM936.057 771.011h-134.926v60.235h134.926v-60.235zM704.753 674.635h-385.507v60.235h385.507v-60.235zM627.652 751.737h-308.405v60.235h308.405v-60.235zM704.753 828.839h-385.507v60.235h385.507v-60.235z"></path>
</svg>
